<svg xmlns="http://www.w3.org/2000/svg" xmlns:xlink="http://www.w3.org/1999/xlink" viewBox="8479 325 341.7 431"><defs><style>.a{fill:#fff;}.b{fill:url(#a);}.c{fill:url(#b);}.d{fill:url(#c);}.e{fill:url(#d);}.f{fill:url(#e);}.g{fill:url(#f);}.h{fill:url(#g);}.i{fill:url(#h);}.j{fill:url(#i);}.k{fill:url(#j);}.l{fill:url(#k);}.m{fill:url(#l);}.n{fill:url(#m);}.o{fill:url(#n);}.p{fill:url(#o);}.q{fill:url(#p);}.r{fill:url(#q);}.s{fill:url(#r);}.t{fill:url(#s);}</style><linearGradient id="a" x1="-0.001" y1="0.5" x2="1.001" y2="0.5" gradientUnits="objectBoundingBox"><stop offset="0" stop-color="#00aee9"/><stop offset="0.075" stop-color="#14b1d1"/><stop offset="0.221" stop-color="#37b7a7"/><stop offset="0.37" stop-color="#54bc85"/><stop offset="0.521" stop-color="#6abf6a"/><stop offset="0.674" stop-color="#7ac257"/><stop offset="0.832" stop-color="#84c34c"/><stop offset="1" stop-color="#87c448"/></linearGradient><linearGradient id="b" x1="0.001" y1="0.5" x2="0.999" y2="0.5" xlink:href="#a"/><linearGradient id="c" x1="0" y1="0.501" x2="1" y2="0.501" xlink:href="#a"/><linearGradient id="d" x1="0.002" y1="0.495" x2="1.002" y2="0.495" xlink:href="#a"/><linearGradient id="e" x1="0" y1="0.5" x2="0.999" y2="0.5" xlink:href="#a"/><linearGradient id="f" x1="0.002" y1="0.501" x2="1.001" y2="0.501" xlink:href="#a"/><linearGradient id="g" x1="0.001" y1="0.5" x2="1.001" y2="0.5" xlink:href="#a"/><linearGradient id="h" x1="0.001" y1="0.502" x2="0.999" y2="0.502" xlink:href="#a"/><linearGradient id="i" x1="0.001" y1="0.5" x2="0.999" y2="0.5" xlink:href="#a"/><linearGradient id="j" x1="-0.002" y1="0.502" x2="0.997" y2="0.502" xlink:href="#a"/><linearGradient id="k" x1="0.001" y1="0.501" x2="1" y2="0.501" xlink:href="#a"/><linearGradient id="l" x1="0" y1="0.5" x2="0.999" y2="0.5" xlink:href="#a"/><linearGradient id="m" x1="0.001" y1="0.5" x2="1" y2="0.5" xlink:href="#a"/><linearGradient id="n" x1="-0.001" y1="0.499" x2="1" y2="0.499" xlink:href="#a"/><linearGradient id="o" x1="-0.001" y1="0.5" x2="1" y2="0.5" xlink:href="#a"/><linearGradient id="p" x1="0.001" y1="0.499" x2="1.002" y2="0.499" xlink:href="#a"/><linearGradient id="q" x1="-0.004" y1="0.505" x2="1" y2="0.505" xlink:href="#a"/><linearGradient id="r" x1="0.002" y1="0.503" x2="1" y2="0.503" xlink:href="#a"/><linearGradient id="s" x1="-0.003" y1="0.498" x2="1" y2="0.498" xlink:href="#a"/></defs><g transform="translate(8479 325)"><path class="a" d="M46.5,278.2l14.8,21.9H44.9L32.3,281.3H21.1v18.8H6.3V231H34c14.2,0,25.5,10.9,25.5,25.2A24.654,24.654,0,0,1,46.5,278.2ZM33,269.1c7.8,0,11.8-5.4,11.8-12.9s-4-12.9-11.8-12.9H21.1v25.8Z"/><path class="a" d="M118.7,300.2h-50V231.1H117v12.3H83.5v15H111v12.3H83.5v17.2h35.2Z"/><path class="a" d="M169.5,287.2H142l-5.2,13H122.3l27.5-69.1h11.8l27.5,69.1H174.6Zm-5-12.3L155.7,253l-8.8,21.9Z"/><path class="a" d="M222.4,300.6c-19.4,0-36-15.4-36-35s16.6-35,36-35c11,0,21.9,5.3,27.5,15.2l-10,7.2c-3.6-5.4-9.3-10.1-17.7-10.1-12.3,0-21.1,9.9-21.1,22.8s8.8,22.8,21.1,22.8c8.4,0,14-4.6,17.7-10l10,7.2C244.3,295.3,233.3,300.6,222.4,300.6Z"/><path class="a" d="M289.3,243.3v56.9H274.6V243.3H255.4V231h53v12.3H289.3Z"/><path class="a" d="M40.5,376.2c-19.4,0-36-15.4-36-35s16.6-35,36-35c11,0,21.9,5.3,27.5,15.2l-10,7.2c-3.6-5.4-9.3-10.1-17.7-10.1-12.4,0-21.1,9.9-21.1,22.8s8.8,22.8,21.1,22.8c8.4,0,14-4.6,17.7-10l10,7.2C62.5,370.9,51.5,376.2,40.5,376.2Z"/><path class="a" d="M142.8,341.2c0,21-15.8,35-36,35s-36-14-36-35,15.8-35,36-35S142.8,320.2,142.8,341.2Zm-57.3,0c0,13.2,8.6,22.8,21.3,22.8,12.8,0,21.3-9.6,21.3-22.8,0-13.1-8.6-22.8-21.3-22.8C94.1,318.5,85.5,328.1,85.5,341.2Z"/><path class="a" d="M196.1,375.8l-31.2-45.6v45.6H150.2V306.7h15.2l31.2,45.6V306.7h14.7v69.1Z"/><path class="a" d="M236.3,335.8h27V348h-27v27.7H221.6V306.6h48.2v12.3H236.3v16.9Z"/><path class="a" d="M18.8,391.2v33.2H14.1V391.2H2.3v-3.9H30.7v3.9Z"/><path class="a" d="M59.5,424.3H34.3v-37H58.5v3.9H39v11.9H55V407H39v13.5H59.5Z"/><path class="a" d="M91.4,424.3H86.7V407.7h-18v16.6H64v-37h4.7v16.6h18V387.3h4.7Z"/><path class="a" d="M115.1,412.6l7.9,11.8h-5.4l-7.4-11H101v11H96.3v-37h14.2a13.048,13.048,0,0,1,4.6,25.2Zm-4.5-3.1c4.2,0,8.1-3.8,8.1-9.1s-3.9-9.2-8.1-9.2H101v18.3h9.6Z"/><path class="a" d="M148.9,415.4H133l-3.5,8.9h-5.1l15.4-37h2.4l15.4,37h-5.1Zm-1.5-3.9-6.5-16.4-6.4,16.4Z"/><path class="a" d="M186,424.3l-20.9-31.2v31.2h-4.7v-37h6l21,31.2V387.3H192v37Z"/><path class="a" d="M221.6,383.4V431h-4.3V383.4Z"/><path class="a" d="M268.5,420.5v3.9h-22v-4.5c0-6.4,2.2-8.5,5.5-10.6,6.8-4.3,11.9-5.2,11.9-11.5,0-3.4-1.4-6.8-5.7-6.8-4.5,0-6.7,3.5-6.7,7.8l-4.7-1.1c0-4.6,3.2-10.5,11.5-10.5,7.5,0,10.4,4.9,10.4,10.7,0,6.6-4.2,8.6-8.2,11.2-7,4.5-9.4,5.1-9.4,11.6h17.4Z"/><path class="a" d="M285,424.6c-7.5,0-12.4-4.2-12.4-12.4V399.5c0-8.1,4.9-12.4,12.4-12.4,7.4,0,12.2,4.4,12.3,12.4v12.7C297.2,420.3,292.4,424.6,285,424.6Zm0-33.7c-4.6,0-7.7,2.3-7.7,8.7V412c0,6.4,3.1,8.7,7.7,8.7,4.5,0,7.7-2.3,7.7-8.7V399.7C292.6,393.2,289.5,390.9,285,390.9Z"/><path class="a" d="M311.7,424.3h-4.6V391.1h-5.7v-3.9h10.3v37.1Z"/><path class="a" d="M341.7,412.6c0,7.3-5.4,11.9-12.8,11.9-7.6,0-13-4.7-13-11.9,0-5.8,3.8-8.9,7.3-10.4a7.922,7.922,0,0,1-3.7-6.8c0-4.8,3.8-8.4,9.4-8.4,5.5,0,9.4,3.6,9.4,8.4a7.982,7.982,0,0,1-3.9,6.8C337.9,403.7,341.7,406.9,341.7,412.6Zm-4.7.1c0-4.8-3.3-8-8.1-8-5,0-8.3,3.2-8.3,8s3.3,8,8.3,8C333.7,420.7,337,417.5,337,412.7Zm-8.2-12.6a4.324,4.324,0,0,0,4.7-4.6,4.421,4.421,0,0,0-4.7-4.6,4.6,4.6,0,1,0,0,9.2Z"/><path class="b" d="M181,99.3a248.308,248.308,0,0,0-22.3-18.4c.4,6,.5,12.1.5,18.4s-.2,12.4-.5,18.4A223.022,223.022,0,0,0,181,99.3Z"/><path class="c" d="M91.1,37.7V38c7.1,2.5,14.3,5.5,21.6,8.9a236.754,236.754,0,0,1,32.7-12.6A126.331,126.331,0,0,0,134.8,6.5,99.852,99.852,0,0,0,99.3,0c-1.5,0-3.1,0-4.6.1-4.3,6.1-8.3,14.3-11.6,24A15.6,15.6,0,0,1,91.1,37.7Z"/><path class="d" d="M158.1,73.1a250.11,250.11,0,0,1,27.2,22,153.5,153.5,0,0,0,10.4-11.4c.5-.6.9-1.2,1.4-1.8a99.2,99.2,0,0,0-22.7-47.6,141.914,141.914,0,0,0-21.7,4.2A246.165,246.165,0,0,1,158.1,73.1Z"/><path class="e" d="M198.2,108.6c.3-3,.4-6.1.4-9.2s-.2-6.2-.4-9.2a121.989,121.989,0,0,1-8.6,9.2C192.7,102.4,195.5,105.5,198.2,108.6Z"/><path class="f" d="M92.4,134.4c2.3,1.3,4.6,2.6,7,3.9a15.543,15.543,0,0,1,26.6,0c2.3-1.3,4.6-2.5,7-3.9,6.7-3.9,13.2-8,19.4-12.2.6-7.4.9-15.1.9-22.9s-.3-15.5-.9-22.9c-6.2-4.2-12.6-8.3-19.4-12.2-6.7-3.9-13.5-7.4-20.2-10.7-6.7,3.2-13.5,6.8-20.3,10.7s-13.2,8-19.4,12.2c-.6,7.4-.9,15.1-.9,22.9s.3,15.5.9,22.9C79.2,126.4,85.7,130.5,92.4,134.4Z"/><path class="g" d="M44.4,99.3a237.639,237.639,0,0,0,22.3,18.4c-.4-6-.5-12.1-.5-18.4s.2-12.4.5-18.4A273.52,273.52,0,0,0,44.4,99.3Z"/><path class="h" d="M57.7,163.4a150.8,150.8,0,0,0,15-3.3,243.869,243.869,0,0,1-5.4-34.6,236.767,236.767,0,0,1-27.2-22c-18.7,18.7-28.6,36.7-25,48.4,1.5,2.4,3.1,4.8,4.8,7C26.9,164.6,40.2,166.2,57.7,163.4Z"/><path class="i" d="M124.2,156.7a15.464,15.464,0,0,1-11.5,5.1,15.63,15.63,0,0,1-11.5-5.1A200.1,200.1,0,0,1,80,164.2c3.8,14.3,8.9,26.1,14.7,34.2,1.5.1,3,.1,4.6.1a98.9,98.9,0,0,0,35.4-6.5,131.362,131.362,0,0,0,10.7-27.8A200.1,200.1,0,0,1,124.2,156.7Z"/><path class="j" d="M40.1,95.1a254.641,254.641,0,0,1,27.2-22c.6-7.3,1.5-14.3,2.7-20.9A15.581,15.581,0,0,1,60,37.7c0-.7.1-1.3.1-2-.8-.1-1.7-.3-2.5-.4a98.95,98.95,0,0,0-15.5-1.4c-9.8,0-17.5,2-22.2,5.7-1.7,2.3-3.3,4.6-4.8,7-2.7,8.9,2.4,22.2,14.6,37.1A153.5,153.5,0,0,0,40.1,95.1Z"/><path class="k" d="M166.8,169.3a141.937,141.937,0,0,1-15.6-3.4,149.308,149.308,0,0,1-7.9,22.4,98.861,98.861,0,0,0,26.1-18.7C168.5,169.5,167.6,169.4,166.8,169.3Z"/><path class="l" d="M58.6,29.3c1.1.2,2.3.4,3.5.6a15.468,15.468,0,0,1,13.5-7.8,10.869,10.869,0,0,1,1.8.1A107.936,107.936,0,0,1,87.2.7,99.656,99.656,0,0,0,29,29.2C37,27.4,46.9,27.4,58.6,29.3Z"/><path class="m" d="M35.8,99.3c-3.9-3.9-7.5-7.9-10.7-11.8-8.8-10.8-14.2-20.9-16-29.7a99.179,99.179,0,0,0,0,83C11.6,128.6,21,114.1,35.8,99.3Z"/><path class="n" d="M74.2,165.9c-5.4,1.4-10.6,2.6-15.6,3.4a100.168,100.168,0,0,1-16.5,1.4A58.738,58.738,0,0,1,29,169.4a99.656,99.656,0,0,0,58.2,28.5C82.1,189.5,77.6,178.7,74.2,165.9Z"/><path class="o" d="M195.7,114.9a153.507,153.507,0,0,0-10.4-11.4,260.138,260.138,0,0,1-27.2,22,241.616,241.616,0,0,1-5.4,34.6q7.8,2.1,15,3.3c2.3.4,4.5.7,6.7.9a99.2,99.2,0,0,0,22.7-47.6C196.6,116.1,196.2,115.5,195.7,114.9Z"/><path class="p" d="M119.8,50.3q8.1,4.05,16.2,8.7c5.4,3.1,10.6,6.3,15.6,9.7a231.667,231.667,0,0,0-4.8-28.5A238.857,238.857,0,0,0,119.8,50.3Z"/><path class="q" d="M73.8,68.7c5-3.3,10.2-6.5,15.6-9.7q8.1-4.65,16.2-8.7c-5.3-2.4-10.6-4.5-15.8-6.4A15.271,15.271,0,0,1,76,53.2C75.1,58.2,74.4,63.4,73.8,68.7Z"/><path class="r" d="M98.1,151.5a15.12,15.12,0,0,1-.9-5.3,17.853,17.853,0,0,1,.2-2.3c-2.6-1.4-5.3-2.9-7.9-4.4-5.4-3.1-10.6-6.3-15.6-9.7a231.665,231.665,0,0,0,4.8,28.5A196.477,196.477,0,0,0,98.1,151.5Z"/><path class="s" d="M151.2,32.6a153.362,153.362,0,0,1,18.1-3.7,101.18,101.18,0,0,0-26.1-18.7A142.31,142.31,0,0,1,151.2,32.6Z"/><path class="t" d="M146.8,158.5a231.667,231.667,0,0,0,4.8-28.5c-5,3.3-10.2,6.6-15.6,9.7-2.6,1.5-5.3,3-7.9,4.4a17.851,17.851,0,0,1,.2,2.3,15.951,15.951,0,0,1-.9,5.3C133.9,154.2,140.5,156.5,146.8,158.5Z"/><path class="a" d="M181,99.3a248.308,248.308,0,0,0-22.3-18.4c.4,6,.5,12.1.5,18.4s-.2,12.4-.5,18.4A223.022,223.022,0,0,0,181,99.3Z"/><path class="a" d="M91.1,37.7V38c7.1,2.5,14.3,5.5,21.6,8.9a236.754,236.754,0,0,1,32.7-12.6A126.331,126.331,0,0,0,134.8,6.5,99.852,99.852,0,0,0,99.3,0c-1.5,0-3.1,0-4.6.1-4.3,6.1-8.3,14.3-11.6,24A15.6,15.6,0,0,1,91.1,37.7Z"/><path class="a" d="M158.1,73.1a250.11,250.11,0,0,1,27.2,22,153.5,153.5,0,0,0,10.4-11.4c.5-.6.9-1.2,1.4-1.8a99.2,99.2,0,0,0-22.7-47.6,141.914,141.914,0,0,0-21.7,4.2A246.165,246.165,0,0,1,158.1,73.1Z"/><path class="a" d="M198.2,108.6c.3-3,.4-6.1.4-9.2s-.2-6.2-.4-9.2a121.989,121.989,0,0,1-8.6,9.2C192.7,102.4,195.5,105.5,198.2,108.6Z"/><path class="a" d="M92.4,134.4c2.3,1.3,4.6,2.6,7,3.9a15.543,15.543,0,0,1,26.6,0c2.3-1.3,4.6-2.5,7-3.9,6.7-3.9,13.2-8,19.4-12.2.6-7.4.9-15.1.9-22.9s-.3-15.5-.9-22.9c-6.2-4.2-12.6-8.3-19.4-12.2-6.7-3.9-13.5-7.4-20.2-10.7-6.7,3.2-13.5,6.8-20.3,10.7s-13.2,8-19.4,12.2c-.6,7.4-.9,15.1-.9,22.9s.3,15.5.9,22.9C79.2,126.4,85.7,130.5,92.4,134.4Z"/><path class="a" d="M44.4,99.3a237.639,237.639,0,0,0,22.3,18.4c-.4-6-.5-12.1-.5-18.4s.2-12.4.5-18.4A273.52,273.52,0,0,0,44.4,99.3Z"/><path class="a" d="M57.7,163.4a150.8,150.8,0,0,0,15-3.3,243.869,243.869,0,0,1-5.4-34.6,236.767,236.767,0,0,1-27.2-22c-18.7,18.7-28.6,36.7-25,48.4,1.5,2.4,3.1,4.8,4.8,7C26.9,164.6,40.2,166.2,57.7,163.4Z"/><path class="a" d="M124.2,156.7a15.464,15.464,0,0,1-11.5,5.1,15.63,15.63,0,0,1-11.5-5.1A200.1,200.1,0,0,1,80,164.2c3.8,14.3,8.9,26.1,14.7,34.2,1.5.1,3,.1,4.6.1a98.9,98.9,0,0,0,35.4-6.5,131.362,131.362,0,0,0,10.7-27.8A200.1,200.1,0,0,1,124.2,156.7Z"/><path class="a" d="M40.1,95.1a254.641,254.641,0,0,1,27.2-22c.6-7.3,1.5-14.3,2.7-20.9A15.581,15.581,0,0,1,60,37.7c0-.7.1-1.3.1-2-.8-.1-1.7-.3-2.5-.4a98.95,98.95,0,0,0-15.5-1.4c-9.8,0-17.5,2-22.2,5.7-1.7,2.3-3.3,4.6-4.8,7-2.7,8.9,2.4,22.2,14.6,37.1A153.5,153.5,0,0,0,40.1,95.1Z"/><path class="a" d="M166.8,169.3a141.937,141.937,0,0,1-15.6-3.4,149.308,149.308,0,0,1-7.9,22.4,98.861,98.861,0,0,0,26.1-18.7C168.5,169.5,167.6,169.4,166.8,169.3Z"/><path class="a" d="M58.6,29.3c1.1.2,2.3.4,3.5.6a15.468,15.468,0,0,1,13.5-7.8,10.869,10.869,0,0,1,1.8.1A107.936,107.936,0,0,1,87.2.7,99.656,99.656,0,0,0,29,29.2C37,27.4,46.9,27.4,58.6,29.3Z"/><path class="a" d="M35.8,99.3c-3.9-3.9-7.5-7.9-10.7-11.8-8.8-10.8-14.2-20.9-16-29.7a99.179,99.179,0,0,0,0,83C11.6,128.6,21,114.1,35.8,99.3Z"/><path class="a" d="M74.2,165.9c-5.4,1.4-10.6,2.6-15.6,3.4a100.168,100.168,0,0,1-16.5,1.4A58.738,58.738,0,0,1,29,169.4a99.656,99.656,0,0,0,58.2,28.5C82.1,189.5,77.6,178.7,74.2,165.9Z"/><path class="a" d="M195.7,114.9a153.507,153.507,0,0,0-10.4-11.4,260.138,260.138,0,0,1-27.2,22,241.616,241.616,0,0,1-5.4,34.6q7.8,2.1,15,3.3c2.3.4,4.5.7,6.7.9a99.2,99.2,0,0,0,22.7-47.6C196.6,116.1,196.2,115.5,195.7,114.9Z"/><path class="a" d="M119.8,50.3q8.1,4.05,16.2,8.7c5.4,3.1,10.6,6.3,15.6,9.7a231.667,231.667,0,0,0-4.8-28.5A238.857,238.857,0,0,0,119.8,50.3Z"/><path class="a" d="M73.8,68.7c5-3.3,10.2-6.5,15.6-9.7q8.1-4.65,16.2-8.7c-5.3-2.4-10.6-4.5-15.8-6.4A15.271,15.271,0,0,1,76,53.2C75.1,58.2,74.4,63.4,73.8,68.7Z"/><path class="a" d="M98.1,151.5a15.12,15.12,0,0,1-.9-5.3,17.853,17.853,0,0,1,.2-2.3c-2.6-1.4-5.3-2.9-7.9-4.4-5.4-3.1-10.6-6.3-15.6-9.7a231.665,231.665,0,0,0,4.8,28.5A196.477,196.477,0,0,0,98.1,151.5Z"/><path class="a" d="M151.2,32.6a153.362,153.362,0,0,1,18.1-3.7,101.18,101.18,0,0,0-26.1-18.7A142.31,142.31,0,0,1,151.2,32.6Z"/><path class="a" d="M146.8,158.5a231.667,231.667,0,0,0,4.8-28.5c-5,3.3-10.2,6.6-15.6,9.7-2.6,1.5-5.3,3-7.9,4.4a17.851,17.851,0,0,1,.2,2.3,15.951,15.951,0,0,1-.9,5.3C133.9,154.2,140.5,156.5,146.8,158.5Z"/></g></svg>